HIERARCHY
ROOT Hips
{
	OFFSET 0.00000 0.00000 0.00000
	CHANNELS 6 Xposition Yposition Zposition Zrotation Yrotation Xrotation 
	JOINT LHipJoint
	{
		OFFSET 0 0 0
		CHANNELS 3 Zrotation Yrotation Xrotation
		JOINT LeftUpLeg
		{
			OFFSET 1.28366 -1.58472 0.87544
			CHANNELS 3 Zrotation Yrotation Xrotation
			JOINT LeftLeg
			{
				OFFSET 2.18587 -6.00562 0.00000
				CHANNELS 3 Zrotation Yrotation Xrotation
				JOINT LeftFoot
				{
					OFFSET 2.39085 -6.56880 0.00000
					CHANNELS 3 Zrotation Yrotation Xrotation
					JOINT LeftToeBase
					{
						OFFSET 0.12003 -0.32979 2.03101
						CHANNELS 3 Zrotation Yrotation Xrotation
						End Site
						{
							OFFSET 0.00000 -0.00000 1.04074
						}
					}
				}
			}
		}
	}
	JOINT RHipJoint
	{
		OFFSET 0 0 0
		CHANNELS 3 Zrotation Yrotation Xrotation
		JOINT RightUpLeg
		{
			OFFSET -1.21795 -1.58472 0.87544
			CHANNELS 3 Zrotation Yrotation Xrotation
			JOINT RightLeg
			{
				OFFSET -2.22714 -6.11902 0.00000
				CHANNELS 3 Zrotation Yrotation Xrotation
				JOINT RightFoot
				{
					OFFSET -2.40306 -6.60235 0.00000
					CHANNELS 3 Zrotation Yrotation Xrotation
					JOINT RightToeBase
					{
						OFFSET -0.15519 -0.42640 1.91430
						CHANNELS 3 Zrotation Yrotation Xrotation
						End Site
						{
							OFFSET -0.00000 -0.00000 0.99082
						}
					}
				}
			}
		}
	}
	JOINT LowerBack
	{
		OFFSET 0 0 0
		CHANNELS 3 Zrotation Yrotation Xrotation
		JOINT Spine
		{
			OFFSET 0.01180 1.76430 -0.06387
			CHANNELS 3 Zrotation Yrotation Xrotation
			JOINT Spine1
			{
				OFFSET -0.00388 1.74651 0.09536
				CHANNELS 3 Zrotation Yrotation Xrotation
				JOINT Neck
				{
					OFFSET 0 0 0
					CHANNELS 3 Zrotation Yrotation Xrotation
					JOINT Neck1
					{
						OFFSET 0.04111 1.46174 0.14397
						CHANNELS 3 Zrotation Yrotation Xrotation
						JOINT Head
						{
							OFFSET 0.00502 1.44580 -0.31711
							CHANNELS 3 Zrotation Yrotation Xrotation
							End Site
							{
								OFFSET -0.00395 1.49251 -0.12327
							}
						}
					}
				}
				JOINT LeftShoulder
				{
					OFFSET 0 0 0
					CHANNELS 3 Zrotation Yrotation Xrotation
					JOINT LeftArm
					{
						OFFSET 2.70917 1.34870 -0.15417
						CHANNELS 3 Zrotation Yrotation Xrotation
						JOINT LeftForeArm
						{
							OFFSET 4.46610 -0.00000 -0.00000
							CHANNELS 3 Zrotation Yrotation Xrotation
							JOINT LeftHand
							{
								OFFSET 3.41414 -0.00000 0.00000
								CHANNELS 3 Zrotation Yrotation Xrotation
								JOINT LeftFingerBase
								{
									OFFSET 0 0 0
									CHANNELS 3 Zrotation Yrotation Xrotation
									JOINT LeftHandIndex1
									{
										OFFSET 0.32830 -0.00000 0.00000
										CHANNELS 3 Zrotation Yrotation Xrotation
										End Site
										{
											OFFSET 0.26468 -0.00000 0.00000
										}
									}
								}
								JOINT LThumb
								{
									OFFSET 0 0 0
									CHANNELS 3 Zrotation Yrotation Xrotation
									End Site
									{
										OFFSET 0.26872 -0.00000 0.26872
									}
								}
							}
						}
					}
				}
				JOINT RightShoulder
				{
					OFFSET 0 0 0
					CHANNELS 3 Zrotation Yrotation Xrotation
					JOINT RightArm
					{
						OFFSET -3.06316 1.13725 -0.10883
						CHANNELS 3 Zrotation Yrotation Xrotation
						JOINT RightForeArm
						{
							OFFSET -4.40431 -0.00000 0.00000
							CHANNELS 3 Zrotation Yrotation Xrotation
							JOINT RightHand
							{
								OFFSET -3.04688 -0.00000 0.00000
								CHANNELS 3 Zrotation Yrotation Xrotation
								JOINT RightFingerBase
								{
									OFFSET 0 0 0
									CHANNELS 3 Zrotation Yrotation Xrotation
									JOINT RightHandIndex1
									{
										OFFSET -0.50049 -0.00000 0.00000
										CHANNELS 3 Zrotation Yrotation Xrotation
										End Site
										{
											OFFSET -0.40351 -0.00000 0.00000
										}
									}
								}
								JOINT RThumb
								{
									OFFSET 0 0 0
									CHANNELS 3 Zrotation Yrotation Xrotation
									End Site
									{
										OFFSET -0.40967 -0.00000 0.40967
									}
								}
							}
						}
					}
				}
			}
		}
	}
}
MOTION
Frames: 16
Frame Time: .0083333
-30.184 12.9578 14.9131 0 0 0 0 0 0 -21 0 0 0 0 0 0 0 0 0 0 0 0 0 0 21 0 0 0 0 0 0 0 0 0 0 0 0 0 0 0 0 0 0 0 0 0 0 -16 0 0 21 0 0 11 0 0 0 -8 0 0 0 0 0 0 0 0 0 0 0 0 0 0 0 0 0 0 0 0 8 0 0 0 0 0 0 0 0 0 0 0 0 0 0 0 0 0
-30.1840 12.9578 14.9131 -175.8700 -0.0410 -176.3120 0.0000 0.0000 0.0000 -11.3500 30.5936 -52.6106 16.2778 19.6645 79.0583 3.3262 -8.1910 -33.0896 5.3909 -13.8109 -42.4852 0.0000 0.0000 0.0000 20.0981 -28.5844 -52.2945 -16.1988 -19.6500 78.8234 -3.2329 -0.4947 -34.2801 -0.0163 -0.8239 2.2645 0.9249 0.8970 3.4599 1.0456 1.7033 -6.3841 0.3773 0.9581 -8.6605 -2.2671 -3.2446 -16.4266 3.6602 -5.4031 21.3996 0.8979 -2.5164 9.6505 -0.0000 -0.0000 0.0000 -0.1545 -15.4624 66.2612 137.3692 -49.5536 -99.5806 -0.0000 0.0000 -18.6816 54.6731 -10.1272 -13.9333 -7.1250 0.0000 -0.0000 18.4995 13.4126 -14.4964 -0.0000 -0.0000 0.0000 8.9582 12.8850 65.6412 -128.7087 53.5032 -92.7912 0.0000 -0.0000 -5.4891 -57.7340 36.0734 -43.0041 7.1250 -0.0000 -0.0000 -12.1824 22.8070 -16.2219
-30.1832 12.9617 14.9143 -175.9000 -0.0239 -176.3110 0.0000 0.0000 0.0000 -11.4060 30.6566 -52.6085 16.2637 19.6620 79.0164 3.3239 -8.1797 -33.0788 5.3924 -13.8125 -42.4914 0.0000 0.0000 0.0000 20.0920 -28.5740 -52.2761 -16.1755 -19.6456 78.7542 -3.2141 -0.5733 -34.2044 -0.0145 -0.7773 2.1363 0.8907 0.9008 3.4658 1.0219 1.7040 -6.3910 0.3711 0.9596 -8.6716 -2.2398 -3.2096 -16.4552 3.7003 -5.3754 21.4338 0.9102 -2.4972 9.6675 0.0000 -0.0000 0.0000 -0.1044 -15.4482 66.2140 137.4024 -49.5357 -99.6059 -0.0000 0.0000 -18.6601 54.7510 -9.9876 -13.7887 -7.1250 0.0000 -0.0000 18.5862 13.6033 -14.4931 0.0000 -0.0000 0.0000 8.9678 12.8797 65.6073 -128.7172 53.5000 -92.7980 0.0000 -0.0000 -5.4998 -57.6687 36.0467 -42.9137 7.1250 -0.0000 -0.0000 -12.1610 22.7350 -16.1846
-30.1822 12.9693 14.9148 -175.9120 -0.0085 -176.3120 0.0000 0.0000 0.0000 -11.3849 30.6229 -52.5434 16.2285 19.6555 78.9118 3.3025 -8.4436 -32.9470 5.2829 -13.6955 -42.0310 0.0000 0.0000 0.0000 20.0929 -28.5779 -52.2407 -16.1436 -19.6396 78.6593 -3.2015 -0.5512 -34.1300 -0.0155 -0.8029 2.2067 0.8798 0.9370 3.4740 1.0174 1.7517 -6.3922 0.3671 0.9835 -8.6781 -2.4105 -3.2268 -16.5191 3.8564 -5.3971 21.4930 0.9882 -2.5028 9.7107 -0.0000 -0.0000 0.0000 -0.1057 -15.5393 66.1563 137.3941 -49.5402 -99.5996 -0.0000 0.0000 -18.6513 54.7400 -9.9475 -13.7306 -7.1250 0.0000 -0.0000 18.5909 13.6695 -14.4696 -0.0000 -0.0000 0.0000 8.9142 12.7718 65.5473 -128.7031 53.5054 -92.7866 0.0000 -0.0000 -5.5257 -57.6466 36.0538 -42.8941 7.1250 -0.0000 -0.0000 -12.1474 22.7278 -16.1651
-30.1823 12.9757 14.9157 -175.9170 -0.0013 -176.3240 0.0000 0.0000 0.0000 -11.4188 30.6579 -52.5090 16.2046 19.6511 78.8407 3.3077 -8.2746 -32.9862 5.3194 -13.7348 -42.1851 0.0000 0.0000 0.0000 20.1038 -28.5921 -52.2004 -16.1126 -19.6338 78.5670 -3.1988 -0.3912 -34.0649 -0.0241 -1.0022 2.7549 0.8645 0.9151 3.5009 1.0087 1.7221 -6.4097 0.3689 0.9699 -8.7132 -2.3070 -3.1553 -16.5038 3.8263 -5.3226 21.5173 0.9706 -2.4647 9.7100 0.0000 0.0000 0.0000 -0.0553 -15.4420 66.1658 137.4262 -49.5230 -99.6240 -0.0000 0.0000 -18.6239 54.7087 -10.0218 -13.8128 -7.1250 0.0000 -0.0000 18.5509 13.5645 -14.4784 0.0000 0.0000 0.0000 8.9537 12.8424 65.5583 -128.6295 53.5335 -92.7275 0.0000 -0.0000 -5.5324 -57.6760 36.0567 -42.9286 7.1250 -0.0000 -0.0000 -12.1606 22.7505 -16.1858
-30.1819 12.9812 14.9159 -175.9360 0.0064 -176.3440 0.0000 0.0000 0.0000 -11.3986 30.6606 -52.4181 16.1680 19.6442 78.7319 3.2868 -8.6550 -32.8504 5.2103 -13.6168 -41.7236 0.0000 0.0000 0.0000 20.0990 -28.6162 -52.1368 -16.0811 -19.6277 78.4733 -3.1887 -0.5755 -34.0691 -0.0139 -0.7620 2.0942 0.8508 0.9328 3.5016 0.9882 1.7407 -6.3959 0.3531 0.9782 -8.6982 -2.2696 -3.1410 -16.4958 3.8145 -5.3049 21.4826 0.9631 -2.4542 9.6943 -0.0000 -0.0000 0.0000 -0.0326 -15.4904 66.1416 137.4119 -49.5306 -99.6132 -0.0000 0.0000 -18.6113 54.6290 -10.1061 -13.8839 -7.1250 0.0000 -0.0000 18.4789 13.4605 -14.4586 -0.0000 -0.0000 0.0000 8.9057 12.7989 65.5059 -128.6210 53.5367 -92.7207 0.0000 -0.0000 -5.5396 -57.6006 36.0218 -42.8214 7.1250 -0.0000 -0.0000 -12.1376 22.6630 -16.1445
-30.1814 12.9872 14.9163 -175.9500 0.0159 -176.3570 0.0000 0.0000 0.0000 -11.4032 30.6763 -52.3533 16.1362 19.6382 78.6372 3.2762 -8.7827 -32.7871 5.1639 -13.5660 -41.5260 0.0000 0.0000 0.0000 20.0929 -28.6236 -52.0821 -16.0502 -19.6218 78.3813 -3.1817 -0.5918 -34.0367 -0.0130 -0.7367 2.0245 0.8362 0.9423 3.5100 0.9757 1.7506 -6.3929 0.3470 0.9832 -8.6998 -2.2610 -3.1163 -16.4991 3.8304 -5.2760 21.4808 0.9711 -2.4381 9.6936 -0.0000 0.0000 0.0000 -0.0140 -15.5071 66.1249 137.4096 -49.5319 -99.6113 -0.0000 0.0000 -18.5943 54.5989 -10.1504 -13.9269 -7.1250 0.0000 -0.0000 18.4482 13.4020 -14.4558 -0.0000 0.0000 0.0000 8.8788 12.7803 65.4702 -128.5941 53.5470 -92.6990 0.0000 -0.0000 -5.5497 -57.5663 36.0092 -42.7752 7.1250 -0.0000 -0.0000 -12.1257 22.6269 -16.1243
-30.1808 12.9933 14.9165 -175.9600 0.0259 -176.3750 0.0000 0.0000 0.0000 -11.4026 30.6956 -52.2832 16.1023 19.6318 78.5363 3.2651 -8.9014 -32.7218 5.1189 -13.5165 -41.3340 0.0000 0.0000 0.0000 20.0857 -28.6265 -52.0195 -16.0194 -19.6158 78.2896 -3.1769 -0.5999 -34.0138 -0.0125 -0.7211 1.9817 0.8250 0.9537 3.5188 0.9654 1.7631 -6.3866 0.3409 0.9891 -8.6981 -2.2587 -3.0945 -16.5016 3.8438 -5.2480 21.4743 0.9792 -2.4231 9.6911 0.0000 0.0000 0.0000 -0.0032 -15.5321 66.1139 137.4012 -49.5364 -99.6050 -0.0000 0.0000 -18.5821 54.5668 -10.2041 -13.9810 -7.1250 0.0000 -0.0000 18.4137 13.3298 -14.4553 0.0000 0.0000 0.0000 8.8451 12.7599 65.4335 -128.5672 53.5573 -92.6774 0.0000 -0.0000 -5.5545 -57.5315 35.9984 -42.7294 7.1250 -0.0000 -0.0000 -12.1130 22.5922 -16.1029
-30.1801 12.9993 14.9166 -175.9660 0.0366 -176.3950 0.0000 0.0000 0.0000 -11.3975 30.7211 -52.2121 16.0697 19.6255 78.4392 3.2555 -8.9922 -32.6661 5.0815 -13.4750 -41.1735 0.0000 0.0000 0.0000 20.0805 -28.6222 -51.9484 -15.9886 -19.6097 78.1977 -3.1730 -0.6100 -33.9956 -0.0119 -0.7055 1.9389 0.8181 0.9644 3.5284 0.9565 1.7747 -6.3776 0.3341 0.9942 -8.6938 -2.2485 -3.0716 -16.5036 3.8482 -5.2179 21.4650 0.9831 -2.4074 9.6870 -0.0000 0.0000 0.0000 0.0030 -15.5571 66.1091 137.3906 -49.5421 -99.5969 -0.0000 0.0000 -18.5766 54.5383 -10.2511 -14.0280 -7.1250 0.0000 -0.0000 18.3832 13.2666 -14.4545 -0.0000 0.0000 0.0000 8.8094 12.7457 65.3983 -128.5417 53.5670 -92.6569 0.0000 -0.0000 -5.5566 -57.4945 35.9924 -42.6845 7.1250 -0.0000 -0.0000 -12.0972 22.5611 -16.0778
-30.1792 13.0053 14.9166 -175.9650 0.0482 -176.4170 0.0000 0.0000 0.0000 -11.3848 30.7476 -52.1393 16.0372 19.6192 78.3425 3.2460 -9.0672 -32.6119 5.0444 -13.4336 -41.0139 0.0000 0.0000 0.0000 20.0780 -28.6091 -51.8705 -15.9574 -19.6036 78.1048 -3.1695 -0.6140 -33.9781 -0.0119 -0.7056 1.9392 0.8161 0.9752 3.5387 0.9499 1.7869 -6.3661 0.3269 0.9993 -8.6873 -2.2388 -3.0496 -16.5090 3.8503 -5.1882 21.4573 0.9863 -2.3921 9.6841 0.0000 0.0000 0.0000 0.0038 -15.5839 66.1095 137.3799 -49.5479 -99.5888 -0.0000 0.0000 -18.5821 54.5099 -10.2825 -14.0547 -7.1250 0.0000 -0.0000 18.3572 13.2277 -14.4476 0.0000 0.0000 0.0000 8.7681 12.7332 65.3644 -128.5233 53.5740 -92.6420 0.0000 -0.0000 -5.5556 -57.4569 35.9909 -42.6422 7.1250 -0.0000 -0.0000 -12.0793 22.5345 -16.0503
-30.1783 13.0114 14.9165 -175.9580 0.0597 -176.4420 0.0000 0.0000 0.0000 -11.3655 30.7762 -52.0668 16.0057 19.6131 78.2486 3.2380 -9.1034 -32.5677 5.0153 -13.4010 -40.8887 0.0000 0.0000 0.0000 20.0816 -28.5883 -51.7857 -15.9258 -19.5973 78.0107 -3.1658 -0.6188 -33.9601 -0.0122 -0.7144 1.9634 0.8189 0.9841 3.5518 0.9465 1.7970 -6.3538 0.3206 1.0032 -8.6813 -2.2265 -3.0258 -16.5154 3.8471 -5.1556 21.4519 0.9876 -2.3757 9.6818 -0.0000 -0.0000 0.0000 -0.0007 -15.6060 66.1174 137.3704 -49.5530 -99.5815 -0.0000 0.0000 -18.6004 54.4815 -10.3045 -14.0691 -7.1250 0.0000 -0.0000 18.3339 13.2034 -14.4371 -0.0000 -0.0000 0.0000 8.7234 12.7281 65.3366 -128.5105 53.5789 -92.6318 0.0000 -0.0000 -5.5516 -57.4238 35.9950 -42.6087 7.1250 -0.0000 -0.0000 -12.0615 22.5170 -16.0239
-30.1772 13.0173 14.9164 -175.9440 0.0709 -176.4690 0.0000 0.0000 0.0000 -11.3395 30.8062 -51.9949 15.9751 19.6071 78.1575 3.2303 -9.1282 -32.5262 4.9861 -13.3682 -40.7628 0.0000 0.0000 0.0000 20.0895 -28.5612 -51.6958 -15.8941 -19.5909 77.9161 -3.1624 -0.6154 -33.9405 -0.0133 -0.7446 2.0464 0.8258 0.9909 3.5682 0.9445 1.8047 -6.3413 0.3137 1.0057 -8.6771 -2.2043 -2.9998 -16.5217 3.8357 -5.1206 21.4478 0.9846 -2.3584 9.6794 0.0000 -0.0000 0.0000 -0.0060 -15.6227 66.1318 137.3632 -49.5568 -99.5761 -0.0000 0.0000 -18.6340 54.4504 -10.3137 -14.0655 -7.1250 0.0000 -0.0000 18.3126 13.1998 -14.4197 0.0000 -0.0000 0.0000 8.6798 12.7290 65.3151 -128.5006 53.5826 -92.6238 0.0000 -0.0000 -5.5437 -57.3936 36.0039 -42.5816 7.1250 -0.0000 -0.0000 -12.0431 22.5063 -15.9976
-30.1762 13.0231 14.9163 -175.9290 0.0793 -176.4950 0.0000 0.0000 0.0000 -11.3106 30.8286 -51.9233 15.9453 19.6012 78.0688 3.2228 -9.1530 -32.4853 4.9528 -13.3305 -40.6185 0.0000 0.0000 0.0000 20.1013 -28.5311 -51.6055 -15.8623 -19.5845 77.8213 -3.1575 -0.6276 -33.9183 -0.0139 -0.7624 2.0953 0.8325 0.9955 3.5860 0.9440 1.8096 -6.3291 0.3087 1.0069 -8.6741 -2.1733 -2.9725 -16.5254 3.8158 -5.0839 21.4405 0.9776 -2.3406 9.6748 0.0000 0.0000 0.0000 -0.0125 -15.6360 66.1505 137.3609 -49.5580 -99.5743 -0.0000 0.0000 -18.6808 54.4094 -10.3187 -14.0515 -7.1250 0.0000 -0.0000 18.2864 13.2062 -14.3941 0.0000 0.0000 0.0000 8.6317 12.7324 65.2991 -128.5020 53.5821 -92.6249 0.0000 -0.0000 -5.5329 -57.3692 36.0167 -42.5636 7.1250 -0.0000 -0.0000 -12.0260 22.5036 -15.9738
-30.1752 13.0287 14.9162 -175.9160 0.0852 -176.5190 0.0000 0.0000 0.0000 -11.2842 30.8466 -51.8541 15.9163 19.5954 77.9823 3.2156 -9.1846 -32.4456 4.9148 -13.2872 -40.4533 0.0000 0.0000 0.0000 20.1124 -28.4987 -51.5165 -15.8309 -19.5781 77.7274 -3.1522 -0.6546 -33.8983 -0.0142 -0.7689 2.1131 0.8372 0.9991 3.6054 0.9428 1.8132 -6.3179 0.3042 1.0075 -8.6732 -2.1379 -2.9451 -16.5264 3.7913 -5.0467 21.4299 0.9684 -2.3227 9.6684 -0.0000 -0.0000 0.0000 -0.0166 -15.6495 66.1713 137.3621 -49.5574 -99.5752 -0.0000 0.0000 -18.7370 54.3606 -10.3225 -14.0321 -7.1250 0.0000 -0.0000 18.2558 13.2171 -14.3628 -0.0000 -0.0000 0.0000 8.5828 12.7340 65.2887 -128.5091 53.5794 -92.6306 0.0000 -0.0000 -5.5173 -57.3518 36.0291 -42.5530 7.1250 -0.0000 -0.0000 -12.0126 22.5052 -15.9556
-30.1743 13.0343 14.9161 -175.9070 0.0868 -176.5410 0.0000 0.0000 0.0000 -11.2645 30.8545 -51.7871 15.8873 19.5895 77.8958 3.2091 -9.2133 -32.4099 4.8718 -13.2380 -40.2660 0.0000 0.0000 0.0000 20.1203 -28.4655 -51.4307 -15.7997 -19.5716 77.6343 -3.1465 -0.6864 -33.8774 -0.0143 -0.7718 2.1210 0.8382 0.9997 3.6254 0.9385 1.8122 -6.3084 0.2989 1.0061 -8.6743 -2.0910 -2.9153 -16.5239 3.7646 -5.0082 21.4136 0.9567 -2.3035 9.6589 0.0000 0.0000 0.0000 -0.0156 -15.6597 66.1943 137.3632 -49.5568 -99.5761 -0.0000 0.0000 -18.7917 54.3064 -10.3284 -14.0129 -7.1250 0.0000 -0.0000 18.2214 13.2264 -14.3289 0.0000 0.0000 0.0000 8.5408 12.7385 65.2837 -128.5176 53.5762 -92.6375 0.0000 -0.0000 -5.4986 -57.3425 36.0434 -42.5526 7.1250 -0.0000 -0.0000 -12.0023 22.5143 -15.9425
-30.1733 13.0399 14.9159 -175.9040 0.0853 -176.5580 0.0000 0.0000 0.0000 -11.2521 30.8482 -51.7214 15.8581 19.5836 77.8088 3.2027 -9.2502 -32.3744 4.8160 -13.1735 -40.0214 0.0000 0.0000 0.0000 20.1257 -28.4327 -51.3510 -15.7688 -19.5652 77.5423 -3.1411 -0.7250 -33.8611 -0.0141 -0.7678 2.1101 0.8328 0.9998 3.6447 0.9331 1.8100 -6.2997 0.2963 1.0044 -8.6762 -2.0499 -2.8873 -16.5203 3.7446 -4.9716 21.3903 0.9481 -2.2849 9.6472 0.0000 0.0000 0.0000 -0.0144 -15.6722 66.2155 137.3644 -49.5561 -99.5770 -0.0000 0.0000 -18.8385 54.2488 -10.3432 -14.0035 -7.1250 0.0000 -0.0000 18.1824 13.2231 -14.2961 0.0000 0.0000 0.0000 8.4980 12.7402 65.2792 -128.5289 53.5718 -92.6466 0.0000 -0.0000 -5.4769 -57.3400 36.0571 -42.5592 7.1250 -0.0000 -0.0000 -11.9957 22.5271 -15.9348
